<mxfile host="app.diagrams.net" modified="2023-12-31T19:52:49.403Z" agent="Mozilla/5.0 (Windows NT 10.0; Win64; x64) AppleWebKit/537.36 (KHTML, like Gecko) Chrome/120.0.0.0 Safari/537.36" etag="I_Bd6SSklmhYUDcsbqxJ" version="22.1.15" type="github">
  <diagram name="Page-1" id="nkTQfTPpTCj9gXF7PHaY">
    <mxGraphModel dx="594" dy="1586" grid="1" gridSize="10" guides="1" tooltips="1" connect="1" arrows="1" fold="1" page="1" pageScale="1" pageWidth="3300" pageHeight="4681" background="none" math="0" shadow="0">
      <root>
        <mxCell id="0" />
        <mxCell id="1" parent="0" />
        <mxCell id="7B-iIW1Hkji7n5Z48QN_-24" style="edgeStyle=orthogonalEdgeStyle;rounded=0;orthogonalLoop=1;jettySize=auto;html=1;exitX=0.5;exitY=1;exitDx=0;exitDy=0;entryX=0.5;entryY=0;entryDx=0;entryDy=0;" edge="1" parent="1" source="7B-iIW1Hkji7n5Z48QN_-1" target="7B-iIW1Hkji7n5Z48QN_-2">
          <mxGeometry relative="1" as="geometry" />
        </mxCell>
        <mxCell id="7B-iIW1Hkji7n5Z48QN_-1" value="Start" style="rounded=0;whiteSpace=wrap;html=1;" vertex="1" parent="1">
          <mxGeometry x="240" y="120" width="120" height="60" as="geometry" />
        </mxCell>
        <mxCell id="7B-iIW1Hkji7n5Z48QN_-25" style="edgeStyle=orthogonalEdgeStyle;rounded=0;orthogonalLoop=1;jettySize=auto;html=1;exitX=0.5;exitY=1;exitDx=0;exitDy=0;entryX=0.5;entryY=0;entryDx=0;entryDy=0;" edge="1" parent="1" source="7B-iIW1Hkji7n5Z48QN_-2" target="7B-iIW1Hkji7n5Z48QN_-4">
          <mxGeometry relative="1" as="geometry" />
        </mxCell>
        <mxCell id="7B-iIW1Hkji7n5Z48QN_-2" value="Do you want to start play the game?&lt;br&gt;" style="rounded=0;whiteSpace=wrap;html=1;" vertex="1" parent="1">
          <mxGeometry x="240" y="200" width="120" height="60" as="geometry" />
        </mxCell>
        <mxCell id="7B-iIW1Hkji7n5Z48QN_-27" style="edgeStyle=orthogonalEdgeStyle;rounded=0;orthogonalLoop=1;jettySize=auto;html=1;exitX=0.5;exitY=1;exitDx=0;exitDy=0;entryX=0.5;entryY=0;entryDx=0;entryDy=0;" edge="1" parent="1" source="7B-iIW1Hkji7n5Z48QN_-3" target="7B-iIW1Hkji7n5Z48QN_-5">
          <mxGeometry relative="1" as="geometry" />
        </mxCell>
        <mxCell id="7B-iIW1Hkji7n5Z48QN_-3" value="Deal 2 cards for computer and the player" style="rounded=0;whiteSpace=wrap;html=1;" vertex="1" parent="1">
          <mxGeometry x="240" y="360" width="120" height="60" as="geometry" />
        </mxCell>
        <mxCell id="7B-iIW1Hkji7n5Z48QN_-26" style="edgeStyle=orthogonalEdgeStyle;rounded=0;orthogonalLoop=1;jettySize=auto;html=1;exitX=0.5;exitY=1;exitDx=0;exitDy=0;entryX=0.5;entryY=0;entryDx=0;entryDy=0;" edge="1" parent="1" source="7B-iIW1Hkji7n5Z48QN_-4" target="7B-iIW1Hkji7n5Z48QN_-3">
          <mxGeometry relative="1" as="geometry" />
        </mxCell>
        <mxCell id="7B-iIW1Hkji7n5Z48QN_-4" value="Print Logo" style="rounded=0;whiteSpace=wrap;html=1;" vertex="1" parent="1">
          <mxGeometry x="240" y="280" width="120" height="60" as="geometry" />
        </mxCell>
        <mxCell id="7B-iIW1Hkji7n5Z48QN_-20" style="edgeStyle=orthogonalEdgeStyle;rounded=0;orthogonalLoop=1;jettySize=auto;html=1;exitX=0.5;exitY=1;exitDx=0;exitDy=0;entryX=0.5;entryY=0;entryDx=0;entryDy=0;" edge="1" parent="1" source="7B-iIW1Hkji7n5Z48QN_-5" target="7B-iIW1Hkji7n5Z48QN_-6">
          <mxGeometry relative="1" as="geometry" />
        </mxCell>
        <mxCell id="7B-iIW1Hkji7n5Z48QN_-5" value="Check if either one has blackjack (10+ Ace)" style="rounded=0;whiteSpace=wrap;html=1;" vertex="1" parent="1">
          <mxGeometry x="240" y="440" width="120" height="60" as="geometry" />
        </mxCell>
        <mxCell id="7B-iIW1Hkji7n5Z48QN_-21" style="edgeStyle=orthogonalEdgeStyle;rounded=0;orthogonalLoop=1;jettySize=auto;html=1;exitX=1;exitY=0.5;exitDx=0;exitDy=0;entryX=0;entryY=0.5;entryDx=0;entryDy=0;" edge="1" parent="1" source="7B-iIW1Hkji7n5Z48QN_-6" target="7B-iIW1Hkji7n5Z48QN_-19">
          <mxGeometry relative="1" as="geometry" />
        </mxCell>
        <mxCell id="7B-iIW1Hkji7n5Z48QN_-23" value="Yes" style="edgeLabel;html=1;align=center;verticalAlign=middle;resizable=0;points=[];" vertex="1" connectable="0" parent="7B-iIW1Hkji7n5Z48QN_-21">
          <mxGeometry x="-0.2615" y="4" relative="1" as="geometry">
            <mxPoint as="offset" />
          </mxGeometry>
        </mxCell>
        <mxCell id="7B-iIW1Hkji7n5Z48QN_-29" style="edgeStyle=orthogonalEdgeStyle;rounded=0;orthogonalLoop=1;jettySize=auto;html=1;exitX=0.5;exitY=1;exitDx=0;exitDy=0;entryX=0.5;entryY=0;entryDx=0;entryDy=0;" edge="1" parent="1" source="7B-iIW1Hkji7n5Z48QN_-6" target="7B-iIW1Hkji7n5Z48QN_-28">
          <mxGeometry relative="1" as="geometry" />
        </mxCell>
        <mxCell id="7B-iIW1Hkji7n5Z48QN_-30" value="No" style="edgeLabel;html=1;align=center;verticalAlign=middle;resizable=0;points=[];" vertex="1" connectable="0" parent="7B-iIW1Hkji7n5Z48QN_-29">
          <mxGeometry x="-0.25" y="-2" relative="1" as="geometry">
            <mxPoint as="offset" />
          </mxGeometry>
        </mxCell>
        <mxCell id="7B-iIW1Hkji7n5Z48QN_-6" value="Does PC have 21?" style="rounded=0;whiteSpace=wrap;html=1;" vertex="1" parent="1">
          <mxGeometry x="240" y="540" width="120" height="60" as="geometry" />
        </mxCell>
        <mxCell id="7B-iIW1Hkji7n5Z48QN_-22" style="edgeStyle=orthogonalEdgeStyle;rounded=0;orthogonalLoop=1;jettySize=auto;html=1;exitX=0.5;exitY=0;exitDx=0;exitDy=0;entryX=1;entryY=0.5;entryDx=0;entryDy=0;" edge="1" parent="1" source="7B-iIW1Hkji7n5Z48QN_-19" target="7B-iIW1Hkji7n5Z48QN_-2">
          <mxGeometry relative="1" as="geometry" />
        </mxCell>
        <mxCell id="7B-iIW1Hkji7n5Z48QN_-19" value="You LOSE" style="rounded=0;whiteSpace=wrap;html=1;" vertex="1" parent="1">
          <mxGeometry x="425" y="540" width="120" height="60" as="geometry" />
        </mxCell>
        <mxCell id="7B-iIW1Hkji7n5Z48QN_-32" style="edgeStyle=orthogonalEdgeStyle;rounded=0;orthogonalLoop=1;jettySize=auto;html=1;exitX=1;exitY=0.5;exitDx=0;exitDy=0;entryX=0;entryY=0.5;entryDx=0;entryDy=0;" edge="1" parent="1" source="7B-iIW1Hkji7n5Z48QN_-28" target="7B-iIW1Hkji7n5Z48QN_-31">
          <mxGeometry relative="1" as="geometry" />
        </mxCell>
        <mxCell id="7B-iIW1Hkji7n5Z48QN_-33" value="Yes" style="edgeLabel;html=1;align=center;verticalAlign=middle;resizable=0;points=[];" vertex="1" connectable="0" parent="7B-iIW1Hkji7n5Z48QN_-32">
          <mxGeometry x="-0.1077" y="2" relative="1" as="geometry">
            <mxPoint as="offset" />
          </mxGeometry>
        </mxCell>
        <mxCell id="7B-iIW1Hkji7n5Z48QN_-36" style="edgeStyle=orthogonalEdgeStyle;rounded=0;orthogonalLoop=1;jettySize=auto;html=1;exitX=0.5;exitY=1;exitDx=0;exitDy=0;entryX=0.5;entryY=0;entryDx=0;entryDy=0;" edge="1" parent="1" source="7B-iIW1Hkji7n5Z48QN_-28" target="7B-iIW1Hkji7n5Z48QN_-35">
          <mxGeometry relative="1" as="geometry" />
        </mxCell>
        <mxCell id="7B-iIW1Hkji7n5Z48QN_-37" value="No&lt;br&gt;" style="edgeLabel;html=1;align=center;verticalAlign=middle;resizable=0;points=[];" vertex="1" connectable="0" parent="7B-iIW1Hkji7n5Z48QN_-36">
          <mxGeometry y="4" relative="1" as="geometry">
            <mxPoint as="offset" />
          </mxGeometry>
        </mxCell>
        <mxCell id="7B-iIW1Hkji7n5Z48QN_-28" value="Do you have 21?" style="rounded=0;whiteSpace=wrap;html=1;" vertex="1" parent="1">
          <mxGeometry x="240" y="640" width="120" height="60" as="geometry" />
        </mxCell>
        <mxCell id="7B-iIW1Hkji7n5Z48QN_-34" style="edgeStyle=orthogonalEdgeStyle;rounded=0;orthogonalLoop=1;jettySize=auto;html=1;exitX=1;exitY=0.5;exitDx=0;exitDy=0;entryX=1;entryY=0.5;entryDx=0;entryDy=0;" edge="1" parent="1" source="7B-iIW1Hkji7n5Z48QN_-31" target="7B-iIW1Hkji7n5Z48QN_-2">
          <mxGeometry relative="1" as="geometry" />
        </mxCell>
        <mxCell id="7B-iIW1Hkji7n5Z48QN_-31" value="You WIN" style="rounded=0;whiteSpace=wrap;html=1;" vertex="1" parent="1">
          <mxGeometry x="425" y="640" width="120" height="60" as="geometry" />
        </mxCell>
        <mxCell id="7B-iIW1Hkji7n5Z48QN_-39" style="edgeStyle=orthogonalEdgeStyle;rounded=0;orthogonalLoop=1;jettySize=auto;html=1;exitX=0.5;exitY=1;exitDx=0;exitDy=0;entryX=0.5;entryY=0;entryDx=0;entryDy=0;" edge="1" parent="1" source="7B-iIW1Hkji7n5Z48QN_-35" target="7B-iIW1Hkji7n5Z48QN_-38">
          <mxGeometry relative="1" as="geometry" />
        </mxCell>
        <mxCell id="7B-iIW1Hkji7n5Z48QN_-35" value="Do you have 21?" style="rounded=0;whiteSpace=wrap;html=1;" vertex="1" parent="1">
          <mxGeometry x="240" y="740" width="120" height="60" as="geometry" />
        </mxCell>
        <mxCell id="7B-iIW1Hkji7n5Z48QN_-38" value="Calculate PC and Players scores" style="rounded=0;whiteSpace=wrap;html=1;" vertex="1" parent="1">
          <mxGeometry x="240" y="830" width="120" height="60" as="geometry" />
        </mxCell>
      </root>
    </mxGraphModel>
  </diagram>
</mxfile>
